<svg xmlns="http://www.w3.org/2000/svg" viewBox="0 0 1200 630">
<rect width="1200" height="630" fill="#0B0D11"/>
<text x="80" y="270" font-family="Arial Black, Arial" font-size="86" font-weight="900" fill="#EDEEE8">HELMETHUB</text>
<text x="80" y="360" font-family="Arial Black, Arial" font-size="86" font-weight="900" fill="#FF5A1F">INDIA</text>
<text x="82" y="430" font-family="monospace" font-size="26" fill="#96A0AF" letter-spacing="6">COMPARE · CERTIFY · RIDE</text>
<g transform="translate(700,120) scale(1.35)">
<ellipse cx="190" cy="252" rx="140" ry="12" fill="#000" opacity=".18"/>
<g transform="translate(14,10)"><path d="M60 150 C60 70 120 30 190 30 C258 30 306 74 312 140 L312 168 C312 176 306 182 298 182 L86 182 C70 182 60 170 60 150 Z" fill="url(#g229)" stroke="#151619" stroke-width="3"/><path d="M298 182 L298 208 C298 222 286 232 272 232 L150 232 C120 232 96 214 86 182 Z" fill="url(#g229)" stroke="#151619" stroke-width="3"/><path d="M150 96 C200 84 268 88 300 108 L300 158 C260 170 190 168 150 150 Z" fill="#12161D" stroke="#0B0D11" stroke-width="3" opacity="0.92"/><path d="M170 100 C210 92 258 94 288 106 L288 118 C250 108 206 106 170 112 Z" fill="#3D4B60" opacity=".55"/><g fill="#151619" opacity=".8"><rect x="120" y="52" width="34" height="7" rx="3.5"/><rect x="164" y="44" width="34" height="7" rx="3.5"/></g><path d="M96 178 L306 178 L306 166 L96 166 Z" fill="#E06A1F" opacity=".9"/><text x="188" y="222" text-anchor="middle" font-family="Arial, sans-serif" font-size="15" font-weight="700" letter-spacing="2" fill="#E9EAEC" opacity=".85">AXOR</text></g></g>
<defs><linearGradient id="g229" x1="0" y1="0" x2="0.8" y2="1"><stop offset="0" stop-color="#30343B"/><stop offset="1" stop-color="#15171B"/></linearGradient></defs>
</svg>