<svg xmlns="http://www.w3.org/2000/svg" viewBox="0 0 380 270" role="img" aria-label="Vega Off-Road D/V — Dull Black-Orange">
<defs><linearGradient id="g141" x1="0" y1="0" x2="0.8" y2="1">
<stop offset="0" stop-color="#242830"/><stop offset=".55" stop-color="#1B1E24"/><stop offset="1" stop-color="#101215"/>
</linearGradient></defs>
<ellipse cx="190" cy="252" rx="140" ry="12" fill="#000" opacity=".18"/>
<g transform="translate(14,10)"><path d="M60 150 C60 70 120 30 190 30 C258 30 306 74 312 140 L312 168 C312 176 306 182 298 182 L86 182 C70 182 60 170 60 150 Z" fill="url(#g141)" stroke="#101215" stroke-width="3"/><path d="M298 182 L298 208 C298 222 286 232 272 232 L150 232 C120 232 96 214 86 182 Z" fill="url(#g141)" stroke="#101215" stroke-width="3"/><path d="M272 232 L318 224 L318 206 L298 200 Z" fill="url(#g141)" stroke="#101215" stroke-width="3"/><path d="M152 96 C204 84 268 88 300 108 L300 150 C258 162 196 160 152 144 Z" fill="none" stroke="#0B0D11" stroke-width="4"/><path d="M108 66 C160 30 250 26 310 52 L296 74 C240 54 168 56 122 84 Z" fill="#15181C" stroke="#101215" stroke-width="3"/><g fill="#101215" opacity=".8"><rect x="120" y="52" width="34" height="7" rx="3.5"/><rect x="164" y="44" width="34" height="7" rx="3.5"/></g><path d="M96 178 L306 178 L306 166 L96 166 Z" fill="#E06A1F" opacity=".9"/><text x="188" y="222" text-anchor="middle" font-family="Arial, sans-serif" font-size="15" font-weight="700" letter-spacing="2" fill="#E9EAEC" opacity=".85">VEGA</text></g></svg>